<mxfile host="app.diagrams.net" agent="Mozilla/5.0 (Windows NT 10.0; Win64; x64) AppleWebKit/537.36 (KHTML, like Gecko) Chrome/127.0.0.0 Safari/537.36 Edg/127.0.0.0" version="24.7.7">
  <diagram name="Page-1" id="l3kdZvG-Xi2USHyll9HU">
    <mxGraphModel dx="1177" dy="658" grid="1" gridSize="10" guides="1" tooltips="1" connect="1" arrows="1" fold="1" page="1" pageScale="1" pageWidth="850" pageHeight="1100" math="0" shadow="0">
      <root>
        <mxCell id="0" />
        <mxCell id="1" parent="0" />
        <mxCell id="uDG7Tm-xmdI02GvR9tU5-47" style="edgeStyle=orthogonalEdgeStyle;rounded=0;orthogonalLoop=1;jettySize=auto;html=1;exitX=0;exitY=1;exitDx=0;exitDy=0;" parent="1" source="uDG7Tm-xmdI02GvR9tU5-43" target="uDG7Tm-xmdI02GvR9tU5-44" edge="1">
          <mxGeometry relative="1" as="geometry" />
        </mxCell>
        <mxCell id="uDG7Tm-xmdI02GvR9tU5-48" style="edgeStyle=orthogonalEdgeStyle;rounded=0;orthogonalLoop=1;jettySize=auto;html=1;exitX=0.5;exitY=1;exitDx=0;exitDy=0;" parent="1" source="uDG7Tm-xmdI02GvR9tU5-43" target="uDG7Tm-xmdI02GvR9tU5-45" edge="1">
          <mxGeometry relative="1" as="geometry" />
        </mxCell>
        <mxCell id="uDG7Tm-xmdI02GvR9tU5-49" style="edgeStyle=orthogonalEdgeStyle;rounded=0;orthogonalLoop=1;jettySize=auto;html=1;exitX=1;exitY=1;exitDx=0;exitDy=0;" parent="1" source="uDG7Tm-xmdI02GvR9tU5-43" target="uDG7Tm-xmdI02GvR9tU5-46" edge="1">
          <mxGeometry relative="1" as="geometry" />
        </mxCell>
        <mxCell id="H_hXpVpgYC2eC6VhqiK3-1" value="" style="edgeStyle=orthogonalEdgeStyle;rounded=0;orthogonalLoop=1;jettySize=auto;html=1;" edge="1" parent="1" source="uDG7Tm-xmdI02GvR9tU5-43" target="uDG7Tm-xmdI02GvR9tU5-50">
          <mxGeometry relative="1" as="geometry" />
        </mxCell>
        <mxCell id="uDG7Tm-xmdI02GvR9tU5-43" value="What&#39;s your favorite pizza topping?" style="whiteSpace=wrap;html=1;aspect=fixed;" parent="1" vertex="1">
          <mxGeometry x="325" y="110" width="110" height="110" as="geometry" />
        </mxCell>
        <mxCell id="uDG7Tm-xmdI02GvR9tU5-44" value="Pepperoni" style="rounded=0;whiteSpace=wrap;html=1;" parent="1" vertex="1">
          <mxGeometry x="160" y="300" width="120" height="60" as="geometry" />
        </mxCell>
        <mxCell id="uDG7Tm-xmdI02GvR9tU5-45" value="Sausage" style="rounded=0;whiteSpace=wrap;html=1;" parent="1" vertex="1">
          <mxGeometry x="320" y="300" width="120" height="60" as="geometry" />
        </mxCell>
        <mxCell id="uDG7Tm-xmdI02GvR9tU5-46" value="Mushrooms" style="rounded=0;whiteSpace=wrap;html=1;" parent="1" vertex="1">
          <mxGeometry x="480" y="300" width="120" height="60" as="geometry" />
        </mxCell>
        <mxCell id="uDG7Tm-xmdI02GvR9tU5-50" value="QuestionActor" style="shape=umlActor;verticalLabelPosition=bottom;verticalAlign=top;html=1;outlineConnect=0;" parent="1" vertex="1">
          <mxGeometry x="365" y="20" width="30" height="60" as="geometry" />
        </mxCell>
        <mxCell id="uDG7Tm-xmdI02GvR9tU5-51" value="AnswerActor" style="shape=umlActor;verticalLabelPosition=bottom;verticalAlign=top;html=1;outlineConnect=0;" parent="1" vertex="1">
          <mxGeometry x="205" y="370" width="30" height="60" as="geometry" />
        </mxCell>
        <mxCell id="uDG7Tm-xmdI02GvR9tU5-52" value="AnswerActor" style="shape=umlActor;verticalLabelPosition=bottom;verticalAlign=top;html=1;outlineConnect=0;" parent="1" vertex="1">
          <mxGeometry x="365" y="370" width="30" height="60" as="geometry" />
        </mxCell>
        <mxCell id="uDG7Tm-xmdI02GvR9tU5-53" value="AnswerActor" style="shape=umlActor;verticalLabelPosition=bottom;verticalAlign=top;html=1;outlineConnect=0;" parent="1" vertex="1">
          <mxGeometry x="525" y="370" width="30" height="60" as="geometry" />
        </mxCell>
        <mxCell id="uDG7Tm-xmdI02GvR9tU5-55" value="QuestionActor" style="swimlane;fontStyle=0;childLayout=stackLayout;horizontal=1;startSize=26;fillColor=none;horizontalStack=0;resizeParent=1;resizeParentMax=0;resizeLast=0;collapsible=1;marginBottom=0;whiteSpace=wrap;html=1;" parent="1" vertex="1">
          <mxGeometry x="470" y="20" width="300" height="130" as="geometry">
            <mxRectangle x="470" y="20" width="120" height="30" as="alternateBounds" />
          </mxGeometry>
        </mxCell>
        <mxCell id="uDG7Tm-xmdI02GvR9tU5-68" value="&lt;div&gt;&lt;div&gt;- Route: &quot;user/question-manager/question-{guid}&quot;&lt;/div&gt;&lt;/div&gt;" style="text;strokeColor=none;fillColor=none;align=left;verticalAlign=top;spacingLeft=4;spacingRight=4;overflow=hidden;rotatable=0;points=[[0,0.5],[1,0.5]];portConstraint=eastwest;whiteSpace=wrap;html=1;" parent="uDG7Tm-xmdI02GvR9tU5-55" vertex="1">
          <mxGeometry y="26" width="300" height="26" as="geometry" />
        </mxCell>
        <mxCell id="uDG7Tm-xmdI02GvR9tU5-56" value="&lt;div&gt;&lt;span style=&quot;background-color: initial;&quot;&gt;+ QuestionId: Guid -&amp;gt; &quot;{question}&quot;&lt;/span&gt;&lt;br&gt;&lt;/div&gt;" style="text;strokeColor=none;fillColor=none;align=left;verticalAlign=top;spacingLeft=4;spacingRight=4;overflow=hidden;rotatable=0;points=[[0,0.5],[1,0.5]];portConstraint=eastwest;whiteSpace=wrap;html=1;" parent="uDG7Tm-xmdI02GvR9tU5-55" vertex="1">
          <mxGeometry y="52" width="300" height="26" as="geometry" />
        </mxCell>
        <mxCell id="uDG7Tm-xmdI02GvR9tU5-57" value="+ Question: string" style="text;strokeColor=none;fillColor=none;align=left;verticalAlign=top;spacingLeft=4;spacingRight=4;overflow=hidden;rotatable=0;points=[[0,0.5],[1,0.5]];portConstraint=eastwest;whiteSpace=wrap;html=1;" parent="uDG7Tm-xmdI02GvR9tU5-55" vertex="1">
          <mxGeometry y="78" width="300" height="26" as="geometry" />
        </mxCell>
        <mxCell id="uDG7Tm-xmdI02GvR9tU5-58" value="+ Answers: Dictionary&amp;lt;AnswerId, string&amp;gt;" style="text;strokeColor=none;fillColor=none;align=left;verticalAlign=top;spacingLeft=4;spacingRight=4;overflow=hidden;rotatable=0;points=[[0,0.5],[1,0.5]];portConstraint=eastwest;whiteSpace=wrap;html=1;" parent="uDG7Tm-xmdI02GvR9tU5-55" vertex="1">
          <mxGeometry y="104" width="300" height="26" as="geometry" />
        </mxCell>
        <mxCell id="uDG7Tm-xmdI02GvR9tU5-69" value="AnswerActor" style="swimlane;fontStyle=0;childLayout=stackLayout;horizontal=1;startSize=26;fillColor=none;horizontalStack=0;resizeParent=1;resizeParentMax=0;resizeLast=0;collapsible=1;marginBottom=0;whiteSpace=wrap;html=1;" parent="1" vertex="1">
          <mxGeometry x="217.5" y="485" width="325" height="156" as="geometry">
            <mxRectangle x="470" y="20" width="120" height="30" as="alternateBounds" />
          </mxGeometry>
        </mxCell>
        <mxCell id="uDG7Tm-xmdI02GvR9tU5-70" value="&lt;div&gt;&lt;div&gt;- Route: &quot;user/answer-manager/answer-{guid}&quot;&lt;/div&gt;&lt;/div&gt;" style="text;strokeColor=none;fillColor=none;align=left;verticalAlign=top;spacingLeft=4;spacingRight=4;overflow=hidden;rotatable=0;points=[[0,0.5],[1,0.5]];portConstraint=eastwest;whiteSpace=wrap;html=1;" parent="uDG7Tm-xmdI02GvR9tU5-69" vertex="1">
          <mxGeometry y="26" width="325" height="26" as="geometry" />
        </mxCell>
        <mxCell id="uDG7Tm-xmdI02GvR9tU5-90" value="&lt;div&gt;&lt;div&gt;+ QuestionId: Guid&lt;/div&gt;&lt;/div&gt;" style="text;strokeColor=none;fillColor=none;align=left;verticalAlign=top;spacingLeft=4;spacingRight=4;overflow=hidden;rotatable=0;points=[[0,0.5],[1,0.5]];portConstraint=eastwest;whiteSpace=wrap;html=1;" parent="uDG7Tm-xmdI02GvR9tU5-69" vertex="1">
          <mxGeometry y="52" width="325" height="26" as="geometry" />
        </mxCell>
        <mxCell id="uDG7Tm-xmdI02GvR9tU5-91" value="&lt;div&gt;&lt;div&gt;+ AnswerId: Guid -&amp;gt; &quot;{QuestionId}-{Answer}&quot;&lt;/div&gt;&lt;/div&gt;" style="text;strokeColor=none;fillColor=none;align=left;verticalAlign=top;spacingLeft=4;spacingRight=4;overflow=hidden;rotatable=0;points=[[0,0.5],[1,0.5]];portConstraint=eastwest;whiteSpace=wrap;html=1;" parent="uDG7Tm-xmdI02GvR9tU5-69" vertex="1">
          <mxGeometry y="78" width="325" height="26" as="geometry" />
        </mxCell>
        <mxCell id="uDG7Tm-xmdI02GvR9tU5-72" value="+ Answer: string" style="text;strokeColor=none;fillColor=none;align=left;verticalAlign=top;spacingLeft=4;spacingRight=4;overflow=hidden;rotatable=0;points=[[0,0.5],[1,0.5]];portConstraint=eastwest;whiteSpace=wrap;html=1;" parent="uDG7Tm-xmdI02GvR9tU5-69" vertex="1">
          <mxGeometry y="104" width="325" height="26" as="geometry" />
        </mxCell>
        <mxCell id="uDG7Tm-xmdI02GvR9tU5-73" value="+ Votes: int" style="text;strokeColor=none;fillColor=none;align=left;verticalAlign=top;spacingLeft=4;spacingRight=4;overflow=hidden;rotatable=0;points=[[0,0.5],[1,0.5]];portConstraint=eastwest;whiteSpace=wrap;html=1;" parent="uDG7Tm-xmdI02GvR9tU5-69" vertex="1">
          <mxGeometry y="130" width="325" height="26" as="geometry" />
        </mxCell>
        <mxCell id="uDG7Tm-xmdI02GvR9tU5-76" value="QuestionCreated" style="shape=note;whiteSpace=wrap;html=1;backgroundOutline=1;darkOpacity=0.05;" parent="1" vertex="1">
          <mxGeometry x="790" y="110" width="140" height="80" as="geometry" />
        </mxCell>
        <mxCell id="uDG7Tm-xmdI02GvR9tU5-77" value="CreateQuestion" style="shape=callout;whiteSpace=wrap;html=1;perimeter=calloutPerimeter;" parent="1" vertex="1">
          <mxGeometry x="790" y="20" width="120" height="80" as="geometry" />
        </mxCell>
        <mxCell id="uDG7Tm-xmdI02GvR9tU5-83" value="CreateAnswer" style="shape=callout;whiteSpace=wrap;html=1;perimeter=calloutPerimeter;" parent="1" vertex="1">
          <mxGeometry x="570" y="485" width="120" height="80" as="geometry" />
        </mxCell>
        <mxCell id="uDG7Tm-xmdI02GvR9tU5-84" value="AnswerCreated" style="shape=note;whiteSpace=wrap;html=1;backgroundOutline=1;darkOpacity=0.05;" parent="1" vertex="1">
          <mxGeometry x="560" y="570" width="140" height="80" as="geometry" />
        </mxCell>
        <mxCell id="uDG7Tm-xmdI02GvR9tU5-85" value="IncreaseAnswerVotes" style="shape=callout;whiteSpace=wrap;html=1;perimeter=calloutPerimeter;" parent="1" vertex="1">
          <mxGeometry x="725" y="485" width="130" height="80" as="geometry" />
        </mxCell>
        <mxCell id="uDG7Tm-xmdI02GvR9tU5-86" value="AnswerVotesIncreased" style="shape=note;whiteSpace=wrap;html=1;backgroundOutline=1;darkOpacity=0.05;" parent="1" vertex="1">
          <mxGeometry x="720" y="570" width="140" height="80" as="geometry" />
        </mxCell>
        <mxCell id="uDG7Tm-xmdI02GvR9tU5-87" value="DecreaseAnswerVotes" style="shape=callout;whiteSpace=wrap;html=1;perimeter=calloutPerimeter;" parent="1" vertex="1">
          <mxGeometry x="870" y="485" width="140" height="80" as="geometry" />
        </mxCell>
        <mxCell id="uDG7Tm-xmdI02GvR9tU5-88" value="AnswerVotesDecreased" style="shape=note;whiteSpace=wrap;html=1;backgroundOutline=1;darkOpacity=0.05;" parent="1" vertex="1">
          <mxGeometry x="870" y="570" width="140" height="80" as="geometry" />
        </mxCell>
        <mxCell id="H_hXpVpgYC2eC6VhqiK3-7" style="edgeStyle=orthogonalEdgeStyle;rounded=0;orthogonalLoop=1;jettySize=auto;html=1;exitX=0.5;exitY=1;exitDx=0;exitDy=0;" edge="1" parent="1" source="H_hXpVpgYC2eC6VhqiK3-3" target="H_hXpVpgYC2eC6VhqiK3-4">
          <mxGeometry relative="1" as="geometry" />
        </mxCell>
        <mxCell id="H_hXpVpgYC2eC6VhqiK3-8" style="edgeStyle=orthogonalEdgeStyle;rounded=0;orthogonalLoop=1;jettySize=auto;html=1;exitX=0.5;exitY=1;exitDx=0;exitDy=0;" edge="1" parent="1" source="H_hXpVpgYC2eC6VhqiK3-3" target="H_hXpVpgYC2eC6VhqiK3-6">
          <mxGeometry relative="1" as="geometry" />
        </mxCell>
        <mxCell id="H_hXpVpgYC2eC6VhqiK3-3" value="QuestionManager" style="rounded=1;whiteSpace=wrap;html=1;" vertex="1" parent="1">
          <mxGeometry x="1280" y="40" width="120" height="60" as="geometry" />
        </mxCell>
        <mxCell id="H_hXpVpgYC2eC6VhqiK3-4" value="QuestionActor-1" style="shape=umlActor;verticalLabelPosition=bottom;verticalAlign=top;html=1;outlineConnect=0;" vertex="1" parent="1">
          <mxGeometry x="1230" y="170" width="30" height="60" as="geometry" />
        </mxCell>
        <mxCell id="H_hXpVpgYC2eC6VhqiK3-12" style="edgeStyle=orthogonalEdgeStyle;rounded=0;orthogonalLoop=1;jettySize=auto;html=1;exitX=1;exitY=1;exitDx=0;exitDy=0;exitPerimeter=0;entryX=0.5;entryY=0;entryDx=0;entryDy=0;" edge="1" parent="1" source="H_hXpVpgYC2eC6VhqiK3-5" target="H_hXpVpgYC2eC6VhqiK3-16">
          <mxGeometry relative="1" as="geometry">
            <mxPoint x="1340" y="310" as="targetPoint" />
          </mxGeometry>
        </mxCell>
        <mxCell id="H_hXpVpgYC2eC6VhqiK3-5" value="QuestionActor-2" style="shape=umlActor;verticalLabelPosition=bottom;verticalAlign=top;html=1;outlineConnect=0;" vertex="1" parent="1">
          <mxGeometry x="1325" y="170" width="30" height="60" as="geometry" />
        </mxCell>
        <mxCell id="H_hXpVpgYC2eC6VhqiK3-6" value="QuestionActor-3" style="shape=umlActor;verticalLabelPosition=bottom;verticalAlign=top;html=1;outlineConnect=0;" vertex="1" parent="1">
          <mxGeometry x="1430" y="170" width="30" height="60" as="geometry" />
        </mxCell>
        <mxCell id="H_hXpVpgYC2eC6VhqiK3-9" style="edgeStyle=orthogonalEdgeStyle;rounded=0;orthogonalLoop=1;jettySize=auto;html=1;exitX=0.5;exitY=1;exitDx=0;exitDy=0;entryX=0.5;entryY=0;entryDx=0;entryDy=0;entryPerimeter=0;" edge="1" parent="1" source="H_hXpVpgYC2eC6VhqiK3-3" target="H_hXpVpgYC2eC6VhqiK3-5">
          <mxGeometry relative="1" as="geometry" />
        </mxCell>
        <mxCell id="H_hXpVpgYC2eC6VhqiK3-10" value="EventJournal" style="shape=cylinder3;whiteSpace=wrap;html=1;boundedLbl=1;backgroundOutline=1;size=15;" vertex="1" parent="1">
          <mxGeometry x="1330" y="485" width="80" height="90" as="geometry" />
        </mxCell>
        <mxCell id="H_hXpVpgYC2eC6VhqiK3-11" style="edgeStyle=orthogonalEdgeStyle;rounded=0;orthogonalLoop=1;jettySize=auto;html=1;exitX=1;exitY=1;exitDx=0;exitDy=0;exitPerimeter=0;entryX=0.5;entryY=0;entryDx=0;entryDy=0;" edge="1" parent="1" source="H_hXpVpgYC2eC6VhqiK3-4" target="H_hXpVpgYC2eC6VhqiK3-15">
          <mxGeometry relative="1" as="geometry">
            <mxPoint x="1240" y="390" as="targetPoint" />
          </mxGeometry>
        </mxCell>
        <mxCell id="H_hXpVpgYC2eC6VhqiK3-13" style="edgeStyle=orthogonalEdgeStyle;rounded=0;orthogonalLoop=1;jettySize=auto;html=1;exitX=1;exitY=1;exitDx=0;exitDy=0;exitPerimeter=0;entryX=0.5;entryY=0;entryDx=0;entryDy=0;" edge="1" parent="1" source="H_hXpVpgYC2eC6VhqiK3-6" target="H_hXpVpgYC2eC6VhqiK3-22">
          <mxGeometry relative="1" as="geometry">
            <mxPoint x="1530" y="330" as="targetPoint" />
          </mxGeometry>
        </mxCell>
        <mxCell id="H_hXpVpgYC2eC6VhqiK3-15" value="QuestionActorState" style="rounded=0;whiteSpace=wrap;html=1;" vertex="1" parent="1">
          <mxGeometry x="1180" y="300" width="120" height="60" as="geometry" />
        </mxCell>
        <mxCell id="H_hXpVpgYC2eC6VhqiK3-16" value="QuestionActorState" style="rounded=0;whiteSpace=wrap;html=1;" vertex="1" parent="1">
          <mxGeometry x="1310" y="390" width="120" height="60" as="geometry" />
        </mxCell>
        <mxCell id="H_hXpVpgYC2eC6VhqiK3-17" value="QuestionActorState" style="swimlane;fontStyle=0;childLayout=stackLayout;horizontal=1;startSize=26;fillColor=none;horizontalStack=0;resizeParent=1;resizeParentMax=0;resizeLast=0;collapsible=1;marginBottom=0;whiteSpace=wrap;html=1;" vertex="1" parent="1">
          <mxGeometry x="1600" y="220" width="300" height="130" as="geometry">
            <mxRectangle x="470" y="20" width="120" height="30" as="alternateBounds" />
          </mxGeometry>
        </mxCell>
        <mxCell id="H_hXpVpgYC2eC6VhqiK3-18" value="&lt;div&gt;&lt;div&gt;- Route: &quot;user/question-manager/question-{guid}&quot;&lt;/div&gt;&lt;/div&gt;" style="text;strokeColor=none;fillColor=none;align=left;verticalAlign=top;spacingLeft=4;spacingRight=4;overflow=hidden;rotatable=0;points=[[0,0.5],[1,0.5]];portConstraint=eastwest;whiteSpace=wrap;html=1;" vertex="1" parent="H_hXpVpgYC2eC6VhqiK3-17">
          <mxGeometry y="26" width="300" height="26" as="geometry" />
        </mxCell>
        <mxCell id="H_hXpVpgYC2eC6VhqiK3-19" value="&lt;div&gt;&lt;span style=&quot;background-color: initial;&quot;&gt;+ QuestionId: Guid -&amp;gt; &quot;{question}&quot;&lt;/span&gt;&lt;br&gt;&lt;/div&gt;" style="text;strokeColor=none;fillColor=none;align=left;verticalAlign=top;spacingLeft=4;spacingRight=4;overflow=hidden;rotatable=0;points=[[0,0.5],[1,0.5]];portConstraint=eastwest;whiteSpace=wrap;html=1;" vertex="1" parent="H_hXpVpgYC2eC6VhqiK3-17">
          <mxGeometry y="52" width="300" height="26" as="geometry" />
        </mxCell>
        <mxCell id="H_hXpVpgYC2eC6VhqiK3-20" value="+ Question: string" style="text;strokeColor=none;fillColor=none;align=left;verticalAlign=top;spacingLeft=4;spacingRight=4;overflow=hidden;rotatable=0;points=[[0,0.5],[1,0.5]];portConstraint=eastwest;whiteSpace=wrap;html=1;" vertex="1" parent="H_hXpVpgYC2eC6VhqiK3-17">
          <mxGeometry y="78" width="300" height="26" as="geometry" />
        </mxCell>
        <mxCell id="H_hXpVpgYC2eC6VhqiK3-21" value="+ Answers: Dictionary&amp;lt;AnswerId, string&amp;gt;" style="text;strokeColor=none;fillColor=none;align=left;verticalAlign=top;spacingLeft=4;spacingRight=4;overflow=hidden;rotatable=0;points=[[0,0.5],[1,0.5]];portConstraint=eastwest;whiteSpace=wrap;html=1;" vertex="1" parent="H_hXpVpgYC2eC6VhqiK3-17">
          <mxGeometry y="104" width="300" height="26" as="geometry" />
        </mxCell>
        <mxCell id="H_hXpVpgYC2eC6VhqiK3-22" value="QuestionActorState" style="rounded=0;whiteSpace=wrap;html=1;" vertex="1" parent="1">
          <mxGeometry x="1430" y="300" width="120" height="60" as="geometry" />
        </mxCell>
        <mxCell id="H_hXpVpgYC2eC6VhqiK3-23" style="edgeStyle=orthogonalEdgeStyle;rounded=0;orthogonalLoop=1;jettySize=auto;html=1;exitX=0.5;exitY=1;exitDx=0;exitDy=0;entryX=0;entryY=0.5;entryDx=0;entryDy=0;entryPerimeter=0;" edge="1" parent="1" source="H_hXpVpgYC2eC6VhqiK3-15" target="H_hXpVpgYC2eC6VhqiK3-10">
          <mxGeometry relative="1" as="geometry" />
        </mxCell>
        <mxCell id="H_hXpVpgYC2eC6VhqiK3-24" style="edgeStyle=orthogonalEdgeStyle;rounded=0;orthogonalLoop=1;jettySize=auto;html=1;entryX=0.5;entryY=0;entryDx=0;entryDy=0;entryPerimeter=0;" edge="1" parent="1" source="H_hXpVpgYC2eC6VhqiK3-16" target="H_hXpVpgYC2eC6VhqiK3-10">
          <mxGeometry relative="1" as="geometry" />
        </mxCell>
        <mxCell id="H_hXpVpgYC2eC6VhqiK3-25" style="edgeStyle=orthogonalEdgeStyle;rounded=0;orthogonalLoop=1;jettySize=auto;html=1;entryX=1;entryY=0.5;entryDx=0;entryDy=0;entryPerimeter=0;exitX=0.5;exitY=1;exitDx=0;exitDy=0;" edge="1" parent="1" source="H_hXpVpgYC2eC6VhqiK3-22" target="H_hXpVpgYC2eC6VhqiK3-10">
          <mxGeometry relative="1" as="geometry" />
        </mxCell>
        <mxCell id="H_hXpVpgYC2eC6VhqiK3-26" value="QuestionActor" style="shape=umlActor;verticalLabelPosition=bottom;verticalAlign=top;html=1;outlineConnect=0;" vertex="1" parent="1">
          <mxGeometry x="230" y="1390" width="30" height="60" as="geometry" />
        </mxCell>
        <mxCell id="H_hXpVpgYC2eC6VhqiK3-27" value="AnswerActor" style="shape=umlActor;verticalLabelPosition=bottom;verticalAlign=top;html=1;outlineConnect=0;" vertex="1" parent="1">
          <mxGeometry x="395" y="1390" width="30" height="60" as="geometry" />
        </mxCell>
        <mxCell id="H_hXpVpgYC2eC6VhqiK3-28" value="AnswerActor" style="shape=umlActor;verticalLabelPosition=bottom;verticalAlign=top;html=1;outlineConnect=0;" vertex="1" parent="1">
          <mxGeometry x="555" y="1390" width="30" height="60" as="geometry" />
        </mxCell>
        <mxCell id="H_hXpVpgYC2eC6VhqiK3-29" value="AnswerActor" style="shape=umlActor;verticalLabelPosition=bottom;verticalAlign=top;html=1;outlineConnect=0;" vertex="1" parent="1">
          <mxGeometry x="715" y="1390" width="30" height="60" as="geometry" />
        </mxCell>
      </root>
    </mxGraphModel>
  </diagram>
</mxfile>
